<svg width="15" height="17" viewBox="0 0 15 17" fill="none" xmlns="http://www.w3.org/2000/svg">
<path d="M7.59635 16.2856C8.51302 16.2856 9.26302 15.5356 9.26302 14.6189H5.92969C5.92969 15.5356 6.67969 16.2856 7.59635 16.2856ZM12.5964 11.2856V7.11895C12.5964 4.56061 11.238 2.41895 8.84635 1.85228V1.28561C8.84635 0.593947 8.28802 0.035614 7.59635 0.035614C6.90469 0.035614 6.34635 0.593947 6.34635 1.28561V1.85228C3.96302 2.41895 2.59635 4.55228 2.59635 7.11895V11.2856L0.929688 12.9523V13.7856H14.263V12.9523L12.5964 11.2856ZM10.9297 12.1189H4.26302V7.11895C4.26302 5.05228 5.52135 3.36895 7.59635 3.36895C9.67135 3.36895 10.9297 5.05228 10.9297 7.11895V12.1189Z" fill="#072531"/>
</svg>
