<svg width="17" height="18" viewBox="0 0 17 18" fill="none" xmlns="http://www.w3.org/2000/svg">
<path d="M7.99479 14.9314H9.14062V13.8481C9.98785 13.7509 10.6476 13.4905 11.1198 13.0668C11.592 12.6432 11.8281 12.0773 11.8281 11.3689C11.8281 10.6606 11.6267 10.0842 11.224 9.63976C10.8212 9.19532 10.1406 8.77171 9.18229 8.36893C8.37674 8.03559 7.7934 7.73698 7.43229 7.47309C7.07118 7.20921 6.89062 6.85504 6.89062 6.41059C6.89062 5.98004 7.04688 5.63976 7.35938 5.38976C7.67188 5.13976 8.09896 5.01476 8.64063 5.01476C9.05729 5.01476 9.4184 5.11198 9.72396 5.30643C10.0295 5.50087 10.2865 5.79254 10.4948 6.18143L11.4948 5.70226C11.2587 5.21615 10.9462 4.8342 10.5573 4.55643C10.1684 4.27865 9.71007 4.11198 9.18229 4.05643V2.99393H8.03646V4.05643C7.32812 4.15365 6.7691 4.41407 6.35938 4.83768C5.94965 5.26129 5.74479 5.78559 5.74479 6.41059C5.74479 7.09115 5.95312 7.63282 6.36979 8.03559C6.78646 8.43837 7.41146 8.81337 8.24479 9.16059C9.17535 9.54948 9.81424 9.90018 10.1615 10.2127C10.5087 10.5252 10.6823 10.9106 10.6823 11.3689C10.6823 11.8134 10.4983 12.171 10.1302 12.4418C9.76215 12.7127 9.30035 12.8481 8.74479 12.8481C8.20313 12.8481 7.72049 12.6953 7.29688 12.3898C6.87326 12.0842 6.57813 11.6675 6.41146 11.1398L5.34896 11.4939C5.64063 12.1328 5.99826 12.6363 6.42188 13.0043C6.84549 13.3724 7.36979 13.6398 7.99479 13.8064V14.9314ZM8.59896 17.2856C7.46007 17.2856 6.38368 17.0668 5.36979 16.6293C4.3559 16.1918 3.47049 15.5946 2.71354 14.8377C1.9566 14.0807 1.35938 13.1953 0.921875 12.1814C0.484375 11.1675 0.265625 10.0911 0.265625 8.95226C0.265625 7.79948 0.484375 6.71615 0.921875 5.70226C1.35938 4.68837 1.9566 3.80643 2.71354 3.05643C3.47049 2.30643 4.3559 1.71268 5.36979 1.27518C6.38368 0.837677 7.46007 0.618927 8.59896 0.618927C9.75174 0.618927 10.8351 0.837677 11.849 1.27518C12.8628 1.71268 13.7448 2.30643 14.4948 3.05643C15.2448 3.80643 15.8385 4.68837 16.276 5.70226C16.7135 6.71615 16.9323 7.79948 16.9323 8.95226C16.9323 10.0911 16.7135 11.1675 16.276 12.1814C15.8385 13.1953 15.2448 14.0807 14.4948 14.8377C13.7448 15.5946 12.8628 16.1918 11.849 16.6293C10.8351 17.0668 9.75174 17.2856 8.59896 17.2856ZM8.59896 16.0356C10.5712 16.0356 12.2448 15.3446 13.6198 13.9627C14.9948 12.5807 15.6823 10.9106 15.6823 8.95226C15.6823 6.98004 14.9948 5.30643 13.6198 3.93143C12.2448 2.55643 10.5712 1.86893 8.59896 1.86893C6.64063 1.86893 4.97049 2.55643 3.58854 3.93143C2.2066 5.30643 1.51562 6.98004 1.51562 8.95226C1.51562 10.9106 2.2066 12.5807 3.58854 13.9627C4.97049 15.3446 6.64063 16.0356 8.59896 16.0356Z" fill="#072531"/>
</svg>
